# xmcd
#
# Track frame offsets: 
#        150
#        20058
#        39337
#        58643
#        77970
#        100748
#        117197
#        131036
#        150676
#        167120
#        182203
#        204361
#        221584
#
# Disc length: 3163 seconds
#
# Revision: 0
# Processed by: cddbd v1.5.2PL0 Copyright (c) Steve Scherf et al.
# Submitted via: ExactAudioCopy v0.99pb5
#
DISCID=b20c590d
DTITLE=Leela Gilday - Calling All Warriors
DYEAR=2009
DGENRE=Country and Folk
TTITLE0=Listen Sister
TTITLE1=So Many Things
TTITLE2=End Of The Day
TTITLE3=Wicked Ways
TTITLE4=Calling All Warriors
TTITLE5=All Alone
TTITLE6=Disappearing Humans
TTITLE7=Rise and Shine
TTITLE8=Piece Of My Life
TTITLE9=Both Eyes Open
TTITLE10=Jimmy
TTITLE11=Secret
TTITLE12=One Law
EXTD=
EXTT0=
EXTT1=
EXTT2=
EXTT3=
EXTT4=
EXTT5=
EXTT6=
EXTT7=
EXTT8=
EXTT9=
EXTT10=
EXTT11=
EXTT12=
PLAYORDER=
